<svg class="main-svg" xmlns="http://www.w3.org/2000/svg" xmlns:xlink="http://www.w3.org/1999/xlink" width="700" height="450" style="" viewBox="0 0 700 450"><rect x="0" y="0" width="700" height="450" style="fill: rgb(255, 255, 255); fill-opacity: 1;"/><defs id="defs-48731e"><g class="clips"><clipPath id="clip48731exyplot" class="plotclip"><rect width="580" height="330"/></clipPath><clipPath class="axesclip" id="clip48731ex"><rect x="60" y="0" width="580" height="450"/></clipPath><clipPath class="axesclip" id="clip48731ey"><rect x="0" y="60" width="700" height="330"/></clipPath><clipPath class="axesclip" id="clip48731exy"><rect x="60" y="60" width="580" height="330"/></clipPath></g><g class="gradients"/></defs><g class="bglayer"><rect class="bg" x="60" y="60" width="580" height="330" style="fill: rgb(255, 255, 255); fill-opacity: 1; stroke-width: 0;"/></g><g class="layer-below"><g class="imagelayer"/><g class="shapelayer"/></g><g class="cartesianlayer"><g class="subplot xy"><g class="layer-subplot"><g class="shapelayer"/><g class="imagelayer"/></g><g class="gridlayer"><g class="x"><path class="xgrid crisp" d="M0,60v330" transform="translate(157.81,0)" style="stroke: rgb(238, 238, 238); stroke-opacity: 1; stroke-width: 1px;"/><path class="xgrid crisp" d="M0,60v330" transform="translate(255.61,0)" style="stroke: rgb(238, 238, 238); stroke-opacity: 1; stroke-width: 1px;"/><path class="xgrid crisp" d="M0,60v330" transform="translate(353.42,0)" style="stroke: rgb(238, 238, 238); stroke-opacity: 1; stroke-width: 1px;"/><path class="xgrid crisp" d="M0,60v330" transform="translate(451.22,0)" style="stroke: rgb(238, 238, 238); stroke-opacity: 1; stroke-width: 1px;"/><path class="xgrid crisp" d="M0,60v330" transform="translate(549.03,0)" style="stroke: rgb(238, 238, 238); stroke-opacity: 1; stroke-width: 1px;"/></g><g class="y"><path class="ygrid crisp" d="M60,0h580" transform="translate(0,378.69)" style="stroke: rgb(238, 238, 238); stroke-opacity: 1; stroke-width: 1px;"/><path class="ygrid crisp" d="M60,0h580" transform="translate(0,313.38)" style="stroke: rgb(238, 238, 238); stroke-opacity: 1; stroke-width: 1px;"/><path class="ygrid crisp" d="M60,0h580" transform="translate(0,262.73)" style="stroke: rgb(238, 238, 238); stroke-opacity: 1; stroke-width: 1px;"/><path class="ygrid crisp" d="M60,0h580" transform="translate(0,221.34)" style="stroke: rgb(238, 238, 238); stroke-opacity: 1; stroke-width: 1px;"/><path class="ygrid crisp" d="M60,0h580" transform="translate(0,186.35)" style="stroke: rgb(238, 238, 238); stroke-opacity: 1; stroke-width: 1px;"/><path class="ygrid crisp" d="M60,0h580" transform="translate(0,156.03)" style="stroke: rgb(238, 238, 238); stroke-opacity: 1; stroke-width: 1px;"/><path class="ygrid crisp" d="M60,0h580" transform="translate(0,129.3)" style="stroke: rgb(238, 238, 238); stroke-opacity: 1; stroke-width: 1px;"/><path class="ygrid crisp" d="M60,0h580" transform="translate(0,105.38)" style="stroke: rgb(238, 238, 238); stroke-opacity: 1; stroke-width: 1px;"/><path class="ygrid crisp" d="M60,0h580" transform="translate(0,83.74)" style="stroke: rgb(238, 238, 238); stroke-opacity: 1; stroke-width: 1px;"/><path class="ygrid crisp" d="M60,0h580" transform="translate(0,63.99)" style="stroke: rgb(238, 238, 238); stroke-opacity: 1; stroke-width: 1px;"/></g></g><g class="zerolinelayer"><path class="xzl zl crisp" d="M0,60v330" transform="translate(60,0)" style="stroke: rgb(68, 68, 68); stroke-opacity: 1; stroke-width: 1px;"/></g><path class="xlines-below"/><path class="ylines-below"/><g class="overlines-below"/><g class="xaxislayer-below"/><g class="yaxislayer-below"/><g class="overaxes-below"/><g class="plot" transform="translate(60, 60)" clip-path="url(#clip48731exyplot)"><g class="imagelayer"/><g class="maplayer"/><g class="barlayer"/><g class="carpetlayer"/><g class="violinlayer"/><g class="boxlayer"/><g class="ohlclayer"/><g class="scatterlayer"><g class="trace scatter trace5e624e" style="stroke-miterlimit: 2; opacity: 1;"><path class="js-line" style="vector-effect: non-scaling-stroke; fill: none; stroke: rgb(31, 119, 180); stroke-opacity: 1; stroke-width: 2px; opacity: 1;" d="M0,16.5L0.44,17.19L0.53,18L0.71,18.89L0.8,20.64L0.89,20.47L0.98,21.08L1.06,21.88L1.87,34.74L1.96,30.9L2.04,26.23L2.96,51.43L3.05,47.4L3.14,46.43L3.23,50.85L3.42,50.04L3.51,50.89L4.13,71.78L4.3,67.4L4.39,53.81L5.29,80.65L5.38,70.54L5.83,82.45L5.91,70.3L6,62.96L6.53,93.18L6.62,62.89L6.7,85.01L6.79,66.3L7.6,111.62L7.68,87.36L8.13,104.83L8.3,85.47L8.48,94.44L8.57,81.58L8.66,73L8.92,101.92L9.09,83.01L9.18,109.4L9.27,71.33L9.53,111.64L9.88,109.04L9.97,93.03L10.14,114.94L10.5,80.92L10.67,87.46L10.76,91.9L10.94,120.4L11.55,103.5L11.64,112.95L12,120.65L12.36,71.84L12.45,122.61L13.07,98.36L13.15,121.96L13.24,122.73L13.77,99.3L13.94,113.62L14.03,131.43L14.82,98.48L14.91,140.48L15.17,75.09L15.61,96.44L15.69,136.21L16.22,142.77L16.48,122.3L16.57,138.65L16.83,117.75L17.36,127.97L17.45,138.29L17.53,112.87L17.71,142.24L18.16,124.81L18.24,127.11L18.34,149.51L18.68,107.69L18.87,130.8L18.95,103.12L19.13,152.16L19.39,122.6L19.47,92.88L20,139.74L20.36,138.79L20.44,142.67L20.8,128.2L21.07,134.49L21.16,156.29L22.05,121.91L22.15,148.61L22.67,117.71L22.94,137.21L23.03,147.64L23.21,149.14L23.29,130.47L23.56,137.93L23.65,160L24.44,121.81L24.53,126.48L24.62,143.59L24.79,170.61L25.15,119.72L25.33,154.47L25.41,140.41L25.86,169.9L25.93,137.61L26.11,152.19L26.2,125.82L26.46,167.17L26.99,147.62L27.08,161.25L27.61,138.97L27.7,167.78L27.79,139.52L27.88,164.07L28.58,112.59L28.67,146.54L28.76,133.19L29.19,167.62L29.28,116.7L29.72,157.83L29.81,89.52L30.16,170.07L30.61,138.14L30.7,172.26L31.14,130.85L31.49,150.86L31.58,156.55L31.76,128.67L31.85,177.11L32.37,175.04L32.46,166.43L32.64,148.55L32.81,170.85L33.08,167.17L33.17,181.37L33.25,183.03L33.34,180.95L33.42,155.67L33.6,162.18L33.69,185.58L34.49,152.03L34.58,167.67L35.02,139.43L35.21,181.59L35.3,171.47L35.39,159.26L35.65,150.78L35.92,180.16L36.1,176.42L36.19,144.35L36.36,129.26L36.45,185.04L36.93,164.1L37.03,151.76L37.12,155.7L37.3,144.77L37.39,183.73L37.76,149.86L38.13,171.93L38.22,178.79L38.39,157.51L38.48,193.82L39.19,157.29L39.28,172.96L39.37,168L39.46,165.27L39.54,128.52L39.63,179.83L40.25,170.04L40.34,148.7L40.43,144.93L40.69,161.77L40.78,178.76L40.95,193.29L41.41,159.6L41.61,172.23L41.7,194.01L41.79,119.95L42.49,156.61L42.58,178.25L42.76,151.3L42.85,188.62L43.39,159.78L43.48,187.95L44.02,140.67L44.11,197.41L44.21,175.64L44.3,179.86L44.67,155.87L44.76,191.97L45.03,158L45.12,179.52L45.3,181.54L45.38,164.87L45.74,180.99L45.83,192.02L46.01,148.52L46.64,164.8L46.73,186.14L47,190.96L47.26,155.52L47.44,166.96L47.53,176.72L47.71,190.6L48.06,167.05L48.23,177.86L48.32,176.24L48.69,199.64L48.77,161.28L48.86,160.73L49.48,203.24L49.66,178.07L49.75,137.04L50.27,198.66L50.53,192.97L50.62,166.06L50.88,197.25L50.97,156.07L51.23,177.97L51.32,159.71L52.11,205.39L52.2,153.48L52.91,203.63L52.99,178.26L53.08,193.42L53.36,196.37L53.98,149.44L54.07,186.67L54.34,195.75L54.78,168.86L54.87,191.67L55.13,167.81L55.3,185.76L55.39,198.17L55.48,206.52L55.66,173.49L55.83,196.8L55.92,177.63L56.01,196.87L56.53,160.37L56.61,192.29L56.7,176.11L56.79,177.25L56.88,201.88L57.75,168.95L57.84,197.8L57.93,167.22L58.37,199.01L58.55,188.06L58.64,201.85L59.16,137.15L59.33,208.25L59.42,206.92L59.6,169.28L60.13,182.15L60.22,194.75L60.49,174.3L60.92,188.09L61.01,201.56L61.19,208.96L61.8,169.85L61.89,175.39L61.97,202.09L62.06,172.23L62.24,215.42L62.69,201.68L62.78,184.57L63.4,208.36L63.5,190.78L63.58,185.36L63.85,201.71L64.29,169.28L64.38,212.51L64.46,212.27L64.55,186.67L64.73,109.77L64.91,180.79L65,197.65L65.35,211.03L65.52,184.13L65.7,184.77L65.79,211.69L66.31,212.03L66.4,179.34L66.76,186.3L66.85,184.23L67.12,176.34L67.2,215.51L67.72,196.27L67.81,175.57L68.16,206.64L68.6,193.07L68.69,173.59L69.04,172.61L69.13,212.15L69.4,205.4L69.49,178.79L69.67,168.33L70.11,200.78L70.2,140.04L70.98,210.1L71.07,194.72L71.25,176.75L71.42,216.28L71.78,200.95L71.87,208.33L72.23,214.14L72.58,166.41L72.67,190.4L72.75,196.99L73.11,189.33L73.2,206.61L73.37,205.49L73.46,170.52L74.25,213.37L74.34,196.8L74.6,147.66L74.69,210.46L74.86,197.72L74.95,204.32L75.49,112.27L75.58,211.6L75.75,185.96L75.84,193.8L76.1,183.29L76.46,215.14L76.56,214.04L76.65,199.44L76.91,212.48L77.35,154.06L77.44,193.56L77.62,209.24L77.71,176.39L78.46,213.59L78.55,206.62L78.73,179.66L79.2,207.65L79.29,205.27L79.38,203.31L79.56,210.2L79.65,176.95L80.35,174.66L80.44,220.76L80.53,213.53L80.62,180.83L80.8,214.24L81.24,192.12L81.33,197.9L81.41,197.05L81.5,180.56L81.68,164.56L82.21,220.27L82.3,200.13L82.38,189.7L83.13,212L83.22,196.93L83.48,217.22L83.66,190.99L83.84,212.34L83.93,194.11L84.19,189.54L84.64,225.46L84.73,188.17L84.91,209.06L85.19,174.38L85.28,184.22L85.36,158.58L85.55,229.29L86.19,215.45L86.28,211.28L86.46,157.88L86.99,210.25L87.08,201.29L87.17,215.36L87.44,156.99L87.71,192.68L87.8,178.89L87.89,173.73L88.07,184.25L88.16,208.48L88.6,224.07L88.87,185.93L88.96,209.71L89.23,190.65L89.31,219.29L89.57,205.83L89.66,183.15L89.75,218.06L90.03,180.27L90.47,213.63L90.56,201.26L90.73,213.5L91,178.9L91.09,219.23L91.26,226.6L91.35,192.61L91.87,209L91.96,221.86L92.14,185.32L92.67,190.04L92.76,209.08L93.19,196.47L93.28,227.52L93.45,201.85L93.54,204.82L93.63,180.51L94.16,225.78L94.25,213.74L94.34,192.87L94.42,227.01L95.06,219.76L95.14,185.2L95.68,224.14L96.03,214.54L96.12,206.86L96.21,213.62L96.38,178.99L96.56,209.33L96.65,188.24L97.18,178.74L97.44,238.24L97.53,207.6L97.61,205.8L97.7,209.3L97.79,186.07L98.13,173.53L98.4,222.25L98.66,215.7L98.75,204.43L99.01,216.28L99.1,228.56L99.36,182.68L99.89,202.98L99.97,220.62L100.06,231.55L100.24,199.75L100.5,200.29L100.59,181.34L100.76,230.69L101.3,193.75L101.38,200.22L101.66,218.57L101.92,189.35L102.1,204.4L102.18,206.35L102.53,192.32L102.88,225.24L102.97,213.55L103.06,217.72L103.15,177.11L103.41,220.71L103.77,195.07L103.85,204.96L104.31,224.74L104.49,222.18L104.58,192.43L104.66,193.06L104.75,206.21L104.84,225.73L105.2,190.18L105.46,209.52L105.55,216.98L105.99,237.69L106.26,188.51L106.35,220.86L106.61,195.17L107.05,218.83L107.14,217.33L107.23,200.11L107.31,219.33L107.93,206.47L108.02,218.5L108.29,203.62L108.38,210.76L108.47,185.48L108.64,226.08L108.8,152.21L109.16,218.2L109.24,190.28L109.94,235.35L110.03,216.61L110.12,223.96L110.57,234.11L111.02,181.43L111.1,196.33L111.46,227.02L111.81,202.55L111.9,203.81L112.25,226.59L112.42,199.09L112.6,203.71L112.68,179.55L112.77,181.8L112.86,217.75L113.13,196L113.31,233.17L113.58,216.14L113.66,208L113.75,206.93L113.84,179.5L114.64,222.88L114.73,205.94L114.9,203.33L114.99,226.11L115.34,182.4L115.78,217.55L115.87,211.75L116.04,188.79L116.13,212.31L116.22,206.86L116.3,215.21L116.48,233.01L116.57,188.26L117.11,236.52L117.46,231.2L117.55,208.6L117.63,230.74L118.18,179.57L118.27,230.64L118.36,222.44L118.62,185.43L118.71,230.29L118.89,206.14L118.98,232.69L119.61,193.48L119.71,207.02L119.81,212.46L120,157.44L120.46,224.92L120.55,207.19L120.65,225.26L121.27,216.6L121.36,214.67L121.54,238.53L121.89,179.49L122.07,220.78L122.16,214.72L122.25,226.24L122.6,202.84L122.69,182.59L122.95,229.73L123.48,215.81L123.57,192.86L124.1,232.12L124.38,223.07L124.47,215.58L124.91,206.31L125,223.23L125.09,215.44L125.18,210.74L125.62,231.05L125.71,198.05L125.8,211.26L125.89,195.15L125.98,197.48L126.07,237.91L126.52,193.3L126.88,215.26L126.97,242.15L127.44,204.36L127.71,230.43L127.8,232L128.16,234.13L128.34,205.32L128.51,209.11L128.6,225.14L128.69,232.87L128.78,215.14L128.87,179.22L128.96,223.22L129.68,214.46L129.77,215.61L130.04,235.28L130.12,199.91L130.21,222.16L130.3,195.18L130.83,237.5L131,189.65L131.09,217.01L131.18,212.84L131.27,225.17L131.45,201.13L131.81,215.35L131.89,203.45L132.33,197.8L132.69,235.75L132.77,217.76L133.12,232.41L133.38,204.6L133.47,229.17L134,212.74L134.09,230.73L134.18,233.84L134.26,234.49L134.35,210.85L134.52,194.63L135.14,237.03L135.23,223.2L135.5,233.7L135.93,206.64L136.02,231.38L136.11,230.46L136.21,202.84L136.65,197.04L136.74,235.85L137.01,214.77L137.09,216.81L137.45,227.39L137.63,204.54L137.72,215.09L137.8,207.55L138.24,230.4L138.59,227.48L138.68,211.63L138.77,185.56L139.2,221.47L139.38,192.27L139.46,235.99L139.81,196.39L139.9,231.1L139.99,235.39L140.08,212.32L140.34,221.18L140.43,213.89L140.95,239.94L141.13,221.02L141.22,210.73L141.3,194.52L141.66,232.88L141.83,221.35L141.92,230.1L142.09,195.05L142.45,239.74L142.54,208.16L142.8,190.92L142.89,239.28L143.25,232.67L143.34,212.52L143.77,202.34L144.12,233.16L144.21,212.9L144.3,212.68L144.38,194.76L144.48,239.68L145.18,227.45L145.26,223.43L145.36,212.24L145.45,238.94L145.9,224.13L145.99,234.29L146.08,243.52L146.34,216.44L146.43,227.51L146.52,207.18L146.61,245.75L146.96,184.57L147.32,242.25L147.41,221.93L147.67,211.29L147.85,240.84L147.94,212.78L148.02,197.85L148.65,236.98L148.91,232.86L148.99,227.38L149.16,238.6L149.44,213.55L149.7,225L149.79,230.68L149.97,224.09L150.05,205.45L150.14,206.09L150.22,202.6L150.3,220.87L150.48,207.04L150.92,239.9L151.01,229.7L151.1,194.11L151.36,238.84L151.89,233.8L151.98,238.12L152.52,192.51L152.78,216.39L152.87,228.51L153.05,236.94L153.23,201.71L153.4,221.92L153.49,236.47L153.57,187.76L154.19,233.19L154.28,217.08L154.37,236.81L154.99,209.74L155.08,208.02L155.17,246.62L155.79,213.44L155.88,225.59L156.06,216.74L156.15,246.75L156.67,242.96L156.76,241.79L157.28,201.76L157.37,244.08L157.46,225.72L157.55,236.48L157.63,211.82L157.98,241.05L158.34,216.97L158.43,241.93L158.61,190.47L159.05,249.64L159.14,241.31L159.23,241.66L159.86,197.68L159.95,220.09L160.03,234.65L160.39,216.26L160.65,238.2L160.74,221.64L160.83,237.7L161.32,216.44L161.41,232.04L161.68,202.89L161.97,238.98L162.15,234.04L162.24,240.93L162.51,214.57L163.04,229.72L163.13,230.93L163.22,229.86L163.31,212.63L163.67,240.7L163.93,212.93L164.02,202.48L164.46,200.37L164.82,240.51L164.9,222.9L165.25,249.5L165.61,246.13L165.71,231.11L165.72,231.32L165.81,215.02L165.99,246.17L166.08,211.58L166.43,232.23L166.52,187.56L166.61,242.93L167.23,222.84L167.32,215.89L167.59,207.76L167.86,241.09L167.96,228.33L168.05,201.54L168.59,238.93L168.78,223.62L168.87,218.7L169.14,240.8L169.32,203.2L169.67,232.9L169.77,224.96L170.12,243.9L170.3,183.58L170.39,227.63L170.48,201.27L170.66,237.2L171.29,237.05L171.37,216.51L171.55,244.7L172.17,239.35L172.26,246.71L172.69,249.44L173.05,200.72L173.15,232.72L173.32,197.52L173.67,237.32L173.94,213.11L174.03,216.19L174.55,246.53L174.64,206.45L174.81,236.27L174.9,246.85L174.99,192.95L175.61,230.6L175.7,245.64L176.48,215.15L176.57,249.02L176.66,251.15L176.75,212.66L177.28,239.14L177.54,234.57L177.64,207.38L177.91,237.99L178.35,211.88L178.44,214.85L178.88,240.72L179.06,212.17L179.15,228.78L179.23,208.22L179.94,239.86L180.02,235.31L180.11,229.5L180.2,170.59L180.29,233.44L180.8,214.89L180.89,212.61L181.07,246.92L181.68,228.18L181.77,223.16L182.38,248.79L182.47,216.12L183.18,238.43L183.26,204.41L183.35,245.4L183.97,237.91L184.06,222.03L184.5,249.04L184.77,246.13L184.86,216.55L185.03,241.05L185.11,230.97L185.2,201.23L185.56,243.89L185.91,236.18L186,207.87L186.17,201.89L186.52,244.96L186.79,220.53L186.88,239.63L187.34,216.63L187.43,247.73L187.51,238.74L187.6,243.31L187.77,203.68L188.39,207.71L188.48,242.87L188.57,215.91L188.75,255.62L189.19,232.97L189.28,242.15L189.37,203.82L189.63,248.17L189.98,243.22L190.07,230.7L190.16,231.09L190.25,235.56L190.34,239.51L190.42,225.16L190.78,231.72L190.87,228.77L190.96,222.2L191.04,241.38L191.4,230.86L191.48,242.56L191.74,204.74L192.17,227.08L192.26,242.77L192.53,217.02L192.79,251.38L193.06,224.78L193.14,237.1L193.23,238.61L193.32,236.38L193.41,218.42L193.5,240.46L194.21,233.84L194.3,217.22L194.39,215.92L194.48,228.75L194.66,212.05L194.74,243.18L194.83,231.83L194.92,251.94L195.53,187.37L195.61,234.03L195.7,234.01L195.79,234.52L195.88,242.2L195.97,223.99L196.15,249.82L196.6,228.42L196.68,236.17L197.03,246.3L197.3,224.17L197.39,248.78L197.57,256.86L197.66,242.19L197.74,225.93L197.92,225.62L198.45,248.19L198.54,244.8L198.63,206.39L199.41,248.82L199.59,245.31L199.68,227.75L199.86,250.02L200.21,214.85L200.3,237.75L200.39,218.09L200.84,252.01L200.93,210.8L201.11,245.28L201.2,221.36L201.38,246.52L201.91,231.25L202,228.48L202.46,217.97L202.75,252L202.84,245.44L202.93,216.06L203.67,245.78L203.76,223.53L204.29,248.56L204.65,235.6L204.74,214.19L205.01,210.01L205.45,245.64L205.63,233.5L205.72,226.89L205.98,218.7L206.51,244.82L206.6,243.15L206.68,222.28L206.77,250.08L207.42,228.29L207.51,219.45L207.77,258.74L208.3,241.68L208.39,224.59L208.66,222L209.2,249.24L209.3,240.59L209.65,206.88L209.83,254.56L210.02,243.28L210.11,240.31L210.21,241.53L210.3,222.07L210.57,251.78L210.75,209.44L211.11,240.41L211.2,234.31L211.28,235.55L211.37,213.4L211.46,250.37L211.73,165.74L212.09,213.12L212.18,205.31L213.07,248.33L213.16,222L213.69,256.16L213.77,226.4L213.86,211.31L214.03,245.83L214.13,207.5L214.67,238.67L214.75,223.83L214.84,227.69L214.93,206.24L215.02,251.06L215.19,205.67L215.55,254.18L215.81,229.46L215.9,242.57L215.99,243.02L216.07,239.68L216.16,237.9L216.33,249.69L216.6,213.48L216.95,225.35L217.04,240.67L217.21,234.7L217.48,251.17L217.83,244.59L217.92,221.07L218,261.65L218.71,248.8L218.8,212.15L219.61,252.91L219.78,252.89L219.87,235.89L220.23,225.54L220.67,249.98L220.75,229.9L221.46,228.77L221.54,249.83L221.63,188.98L222.33,254.15L222.5,249.84L222.59,233.12L222.85,254.68L223.11,225.44L223.29,229.03L223.38,234.32L223.47,231.68L223.64,241.1L223.73,235.41L223.82,251.7L223.9,253.82L223.99,241.94L224.08,243.41L224.17,167.19L224.26,250.35L224.96,242.36L225.05,230.57L225.14,231.39L225.22,241.93L225.31,225.02L225.84,252.89L225.93,243.32L226.02,242.48L226.2,249.65L226.38,230.51L226.63,244.95L226.72,250.64L227.34,253.97L227.6,169.87L227.68,250.76L227.77,228L227.95,257.71L228.4,237.34L228.49,244.62L228.67,226.12L228.86,253.28L228.94,230.45L229.12,211.09L229.3,241.63L229.48,232.8L229.57,254.13L229.74,216.6L229.83,256.01L230.09,229.69L230.18,257.52L230.89,198.6L230.97,250.51L231.06,253.33L231.15,230.26L231.59,200.32L231.85,254.26L231.94,229.34L232.39,252.62L232.48,227.21L232.75,246.3L232.83,243.04L233.01,259.48L233.08,219.85L233.44,256.83L233.87,243.69L233.96,230.21L234.23,258.39L234.31,224.75L234.75,247.79L234.85,231.12L235.03,245.08L235.21,222.61L235.3,236.73L235.38,222.11L236.17,254.04L236.26,240.34L236.35,269.5L236.43,207.32L236.96,230.95L237.05,240.27L237.31,252.12L237.76,226.44L237.85,247.24L238.03,254.17L238.12,241.49L238.21,233.91L238.92,233.82L239.01,264.65L239.09,247.15L239.35,207.15L239.53,250.78L239.79,243.99L239.88,255.66L240.06,217.88L240.58,235.04L240.67,244.46L240.85,258.37L241.11,232.66L241.21,123.57L242,263.57L242.09,247.18L242.37,256.46L242.46,223.73L242.54,253.24L242.63,256.19L242.72,212.7L243.34,265.23L243.43,240.95L243.51,252.99L243.89,225.34L244.18,247.41L244.27,252.54L244.92,217.81L245.01,248.53L245.1,249.1L245.46,233.6L245.64,258.34L245.81,242L245.9,257.57L246.08,231.85L246.52,248.89L246.61,246.68L246.87,251.91L247.32,205.63L247.4,229.46L247.49,222.28L247.93,254.68L248.38,251.35L248.47,246.32L248.76,234.62L248.85,262.07L248.94,203.89L249.56,249.98L249.73,239.23L249.82,219.72L250.18,219.44L250.27,261.59L250.63,256.13L250.72,225.19L251.26,257.08L251.54,241.88L251.63,229.71L251.72,226.4L251.82,239.82L251.91,252.36L252.18,243.2L252.26,258.88L252.35,226.41L253.06,235.82L253.15,230.95L253.87,246.68L253.97,211.11L254.05,252.36L254.76,241.3L254.85,242.01L255.12,248.36L255.37,228.05L255.46,245.84L255.55,246.28L255.65,266.54L255.92,223.93L256.09,233.57L256.18,221.22L256.8,219.58L256.97,261.01L257.06,243.78L257.33,258.66L257.5,225.27L257.67,241.94L257.76,255.36L257.93,225.41L258.46,249.82L258.55,252.49L258.72,253.03L258.9,238.88L258.99,241.15L259.08,194.86L259.7,252.93L259.87,245.87L259.96,257.18L260.4,224.25L260.68,260.78L260.77,249.73L260.94,226.9L261.12,253.83L261.48,232.19L261.57,242.91L261.65,260.63L262.09,234.15L262.27,256.24L262.35,238.22L262.62,252.78L262.71,236.05L262.88,248.89L262.97,230.84L263.06,210.55L263.58,244.93L263.66,236.14L263.75,266.57L264.37,214.64L264.54,240.47L264.63,240.73L264.8,235.71L264.89,259.38L264.98,247.76L265.07,254.63L265.33,256.9L265.59,215.84L265.86,229.42L265.95,252.1L266.29,265.85L266.38,241.9L266.56,250.75L266.65,244.37L266.74,262.9L267.26,233.42L267.36,216.24L267.54,253.57L268.06,212.49L268.15,246.9L268.24,243.95L268.77,256.71L268.85,233.51L268.94,246.15L269.03,197.53L269.65,262.09L269.83,234.28L269.93,246.13L270.28,262.32L270.37,226.26L270.63,234.45L270.73,247.73L271.08,250.37L271.25,224.09L271.43,235.65L271.52,257.22L271.61,264.44L271.96,242.53L272.05,243.98L272.14,245.87L272.23,225.37L272.67,253.19L272.85,236.51L272.94,248.64L273.02,213.26L273.28,260.29L273.64,246.77L273.73,238.69L273.9,244.36L273.99,230.1L274.26,241.25L274.34,232.02L274.6,223.53L274.69,240.79L274.77,246.63L275.03,231.77L275.12,255.78L275.39,246.32L275.48,239.54L275.74,224.76L275.83,259.7L276.18,245.21L276.27,249.18L276.54,222.04L276.81,230.26L276.9,264.13L277.25,225.55L277.69,240.34L277.77,247.49L278.47,255.66L278.56,227.76L278.65,250.35L279.01,243.97L279.19,254.14L279.28,230.68L279.89,261.28L279.98,243.45L280.07,224.83L280.95,257.46L281.04,261.36L281.22,235.16L281.39,266.77L281.75,238.14L281.83,267.74L282.72,188.27L282.81,253.78L283.16,239.51L283.33,256.61L283.51,250.39L283.6,253.45L284.06,217.82L284.32,239.85L284.41,259.21L284.77,233.25L285.21,239.16L285.31,253.18L285.41,256.69L285.51,246.61L285.61,250.99L285.7,218.18L286.52,251.62L286.61,234.07L287.06,262.24L287.41,244.28L287.5,227.14L287.68,267.65L288.03,217.56L288.12,260.07L288.21,230.5L288.56,254.9L288.92,240.09L289.01,225.81L289.89,271.32L289.98,251.05L290.01,258.43L290.37,240.33L290.72,248.82L290.81,251.26L290.99,252.43L291.07,234.66L291.34,247.46L291.43,221.64L291.7,264.25L292.24,262.29L292.33,243.88L292.42,245.48L292.6,237.21L292.69,253.74L292.88,255.38L293.25,231.37L293.34,239.78L293.43,266.92L293.79,232.08L294.23,247.37L294.32,263.06L294.41,262.79L294.5,245.59L294.59,215.26L294.95,254.61L295.22,252.81L295.31,256.02L295.66,238.91L295.93,260.8L296.11,242.88L296.19,256.03L296.46,262.83L296.72,231.29L296.89,254.17L296.99,253.33L297.62,223.12L297.7,267.84L297.79,210.39L298.41,247.62L298.5,252.8L299.11,254.07L299.2,219.48L299.28,257L299.55,227.82L300.07,244.84L300.16,258.24L300.43,221.06L300.78,226.33L300.87,261.73L301.05,263.61L301.14,253.24L301.31,261.74L301.57,239.93L301.66,248.29L301.75,231.99L302.12,269.56L302.47,250.05L302.56,245.36L302.92,239.33L303.18,263.73L303.27,244.39L303.36,231.06L303.88,257.56L304.15,241.47L304.23,228.85L304.59,266.07L305.02,254.4L305.1,243.5L305.45,247.9L305.81,231.29L305.89,249.27L305.98,233.12L306.42,268.96L306.6,247.35L306.68,251.44L306.94,268.75L307.3,241.97L307.39,247.58L307.47,248.51L307.91,243.91L308.18,259.94L308.27,245.22L308.44,260.63L308.71,234.17L308.89,250.57L308.98,234.76L309.59,262.91L309.68,231.07L309.77,258.18L309.85,242.56L310.02,229.45L310.29,265.42L310.55,239.85L310.64,237.13L310.82,271.09L311.36,260.28L311.45,248.96L311.54,241.14L311.81,264.79L312.17,245.41L312.25,249.86L312.34,232.73L312.43,258.27L312.87,237.62L312.96,261.88L313.05,272.97L313.14,253.05L313.22,142.65L313.76,265.83L314.11,251.73L314.2,256.66L314.29,232.47L314.64,262.79L314.89,260.17L314.98,249.66L315.08,236.21L315.43,259.45L315.7,250.63L315.78,248.21L315.87,262.31L315.95,215.29L316.3,256.55L316.39,215.55L316.74,192.34L316.91,264.31L317.18,249.27L317.27,247.01L317.44,252.66L317.53,241.65L317.71,263.37L317.98,237.13L318.07,249.52L318.16,247.99L318.33,257.19L318.51,237.87L318.77,252.8L318.86,259.9L319.3,226.8L319.56,255.95L319.65,252.8L320,233.51L320.27,263.7L320.36,260.22L320.71,244.24L320.8,264.4L321.24,245.64L321.33,256.03L321.42,255.31L321.51,246.05L321.95,265.47L322.04,234.85L322.13,250.47L322.21,237.25L322.74,260.17L322.92,243.84L323.01,232.24L323.62,257.67L323.8,255.74L323.88,241.39L323.97,259.75L324.07,229.04L324.68,253.56L324.77,260.45L324.86,244.93L325.41,258.97L325.5,266.84L325.94,269.48L326.2,222.12L326.29,232.2L326.38,262.06L327.04,267.36L327.13,235.63L327.22,238.82L327.31,258.62L327.5,266.74L327.6,250.83L327.69,255.89L327.78,236.43L328.14,259.64L328.23,233.68L328.58,248.8L328.67,244.47L329.02,263.05L329.3,229.61L329.38,252.38L329.47,244.24L329.73,263.83L329.91,232.15L330.26,234.81L330.36,257.3L330.45,235.24L330.97,259.8L331.15,246.92L331.24,276.42L332.24,235.62L332.33,256.61L332.5,243.77L332.59,260.95L332.77,250.66L332.86,249.86L333.04,236.4L333.31,246.8L333.4,250.51L333.58,237.64L334.12,269.48L334.22,242.87L334.59,238.77L334.86,262.78L335.04,260.3L335.13,246.48L335.22,241.11L335.31,256.56L335.66,244.15L335.75,262.16L336.02,219.66L336.11,252.76L336.2,219.9L336.29,262.19L336.83,235.64L336.92,246.29L337.1,236.92L337.36,263.19L337.54,246.86L337.63,240.97L337.72,261.87L338.24,234.91L338.42,253.61L338.51,263.91L339.22,240.89L339.31,255.64L339.4,261.44L339.66,232.91L340.11,253.36L340.19,255.8L340.37,234.47L340.63,243.03L340.72,253.55L340.89,258.92L340.98,225.16L341.24,255.78L341.33,244.33L341.59,262.14L342.04,243.18L342.12,259.9L342.21,249.72L342.48,238.04L342.92,266.72L343,247.78L343.18,231.7L343.36,264.69L343.73,248.33L343.81,252.25L344.17,241.01L344.26,261.76L344.35,266.53L345.05,242.06L345.22,243.71L345.31,254.93L345.49,258.32L345.58,252.27L345.66,246.87L345.93,243.33L346.02,275.76L346.19,244.36L346.28,239.67L346.45,260.41L346.53,236.85L346.8,258.92L346.89,245.4L347.06,238.03L347.41,264.3L347.67,254.63L347.76,246.6L347.94,243.66L348.2,265.41L348.46,244.54L348.55,204.96L349.34,266.45L349.43,254.14L349.61,249.52L349.7,209.05L350.23,266.55L350.5,249.82L350.59,248.58L350.93,247L351.2,273.21L351.37,258.55L351.46,253.87L351.55,254.67L351.64,252.76L351.73,244.48L352.25,261.8L352.52,248.85L352.61,247.22L352.98,235.92L353.24,266.26L353.42,255.16L353.51,236.32L354.04,235.75L354.22,263.77L354.3,242.5L354.66,207.51L355.1,261.93L355.19,263.67L355.36,267.18L355.45,256.24L355.54,240.19L355.63,261.9L356.15,251.28L356.24,262.76L356.42,263.44L357.13,240.88L357.21,248.92L357.3,250.78L357.38,238.45L357.47,261.22L357.64,250.24L357.82,252.3L357.91,274.31L358.43,239.03L358.7,253.25L358.79,250.72L358.88,243.53L359.15,267.09L359.5,251.23L359.59,263.13L359.86,250.3L359.94,263.42L360.12,257.34L360.21,222.15L360.47,275.47L361.08,260.2L361.17,232.44L361.35,228.36L361.7,273.04L361.97,249.82L362.06,257.68L362.15,260.33L362.24,248.03L362.33,257.14L362.42,229.65L362.68,261.22L363.22,255.35L363.31,240.99L363.65,267.12L363.92,237.48L364.09,253.46L364.18,254.63L364.36,243.94L364.88,266.87L364.97,254.75L365.51,273.29L365.68,250.05L365.77,259.24L366.03,263.16L366.12,251.39L366.3,252.33L366.39,270.4L366.48,243.26L367.2,245.46L367.28,266.84L367.64,230.14L367.9,236.63L368,261.54L368.57,170.5L368.66,251.04L369.04,237.26L369.58,263.19L369.67,259.77L370.02,214.47L370.29,268.75L370.46,240.72L370.56,247.18L370.73,220.29L370.82,267.47L371,246.26L371.09,219.47L371.7,263.93L371.89,246L371.97,252.3L372.06,252.46L372.15,266.57L372.23,234.3L372.59,270.32L372.87,255.31L372.96,248.56L373.05,247.55L373.14,248.17L373.23,261.47L373.49,245.32L373.76,266.34L373.85,201.17L374.29,270.2L374.65,264.61L374.74,256.02L374.83,242.64L374.92,261.65L375.46,250.76L375.55,271.51L375.65,239.9L376.29,267.79L376.38,264.92L376.73,269.96L376.92,244.77L377.09,249.26L377.18,267.74L377.45,225.66L377.63,244.03L377.72,264.83L378.44,271.06L378.53,234.8L378.61,252.94L378.7,247.48L378.79,263.51L379.32,253.68L379.41,265.86L379.58,269.72L379.67,232.51L380.21,233.13L380.3,251.13L380.65,225.75L381.18,267.42L381.27,264.32L381.97,235.98L382.06,252.57L382.15,259.68L382.41,222.63L382.85,249.97L382.94,257.86L383.03,269.79L383.2,248.46L383.55,252.39L383.64,240.85L384.17,272.8L384.43,253.06L384.52,252.51L384.98,264.77L385.33,215.15L385.42,252.91L385.77,265.43L385.86,236.79L386.13,253.97L386.22,250.82L386.3,236.27L386.39,265.14L386.92,259.15L387,265.58L387.45,274.37L387.71,238.53L387.79,265.01L388.23,265.03L388.66,234.32L388.75,253.44L388.84,254.1L388.92,261.32L389.01,222.13L389.45,264.75L389.72,237.81L389.8,276.59L390.59,246.12L390.68,249.9L391.04,267.54L391.13,227.83L391.39,259.67L391.48,252.24L391.66,268.94L391.84,240.52L392.1,257.24L392.19,250.75L392.45,270.32L392.54,243.02L392.8,257.52L392.88,236.03L393.68,279.87L393.77,256.79L393.86,268.26L394.4,246.92L394.49,237.42L394.85,277.15L395.29,259.86L395.38,256.91L395.47,257.79L395.56,252.52L395.64,262.62L395.91,274.5L396.17,224.51L396.35,260.21L396.44,264.88L396.62,266.35L396.79,243.11L396.88,271.6L397.23,244.09L397.67,252.9L397.75,262.24L398.03,263.69L398.47,251.86L398.56,256.55L398.64,262.19L398.73,241.32L399.33,267.19L399.42,254.97L399.51,253.52L399.6,213.55L399.78,269.03L400.22,261.97L400.3,260.32L400.48,243.13L400.75,270.56L400.84,264.96L400.93,247.27L401.2,267.08L401.37,244.76L401.72,260.35L401.81,247.99L402.07,276.72L402.15,225.84L402.59,254.16L402.68,251.05L402.86,244.35L402.95,266.2L403.22,263.44L403.31,250.26L403.93,271.15L404.01,261.87L404.1,252.51L404.37,235.79L404.73,272.78L404.81,250.91L404.9,244.45L405.6,275.89L405.69,258.62L405.78,245.49L406.57,266.46L406.66,251.95L406.74,258.06L406.84,247.45L406.93,190.91L407.72,268.28L407.81,260.21L408.26,261.95L408.53,242.3L408.62,257.69L408.71,269.22L408.79,241.58L409.32,267.06L409.41,258.78L409.5,261.61L409.6,250.98L409.71,243.29L410.36,266.29L410.45,259.24L410.55,249.97L410.64,270.99L410.82,243.56L411.35,262.78L411.44,255.15L411.62,247.47L411.97,259.22L412.06,249.63L412.15,243.54L412.59,262.65L412.68,279.82L413.21,232.95L413.48,242.92L413.57,246.84L414.1,288.98L414.3,258.81L414.39,248.25L414.66,236.7L415.19,270.4L415.28,255.41L415.72,258.22L415.99,243.74L416.08,264.51L416.54,222.05L416.89,246.66L416.99,273.49L417.08,246.7L417.73,262.42L417.81,261.06L417.9,246.27L418.52,267.06L418.61,268.45L418.88,229.43L419.42,254.04L419.51,253.32L419.78,247.54L419.87,260.42L420.13,256.47L420.22,259.81L420.4,276.18L420.67,240.98L420.93,259.11L421.01,261.37L421.1,242.68L421.38,268.18L421.74,255.01L421.82,254.59L421.91,267.99L422.26,246.81L422.53,258.08L422.62,185.15L423.14,270.15L423.4,262.01L423.49,252.55L423.66,261.08L423.84,257.67L423.93,246.77L424.45,273.07L424.54,239.92L424.63,257.35L424.72,257.22L424.81,255.03L424.9,255.74L424.98,270.18L425.07,238.22L425.6,272.7L425.69,268.1L425.78,260.72L426.04,249.05L426.41,274.42L426.5,252.54L427.03,247.95L427.2,274.99L427.38,267.56L427.47,260.75L427.91,243.12L428.08,264.7L428.17,244.91L428.26,260.52L428.44,253.63L428.52,235.21L428.79,278.89L429.31,257.46L429.39,249.78L429.74,263.19L429.83,239.88L430.71,274.4L430.8,260.6L431.06,240.1L431.23,264.9L431.5,249.26L431.59,264.12L432.02,239.45L432.11,261.79L432.2,266.46L432.46,248.88L432.55,238.82L432.82,263.48L433.35,250.13L433.44,246.88L433.61,259.95L434.05,225.07L434.14,266.45L434.84,236.57L434.93,255.11L435.02,256.05L435.11,270.1L435.74,269L435.83,257.76L436.19,249.39L436.27,279.71L436.54,260.27L436.63,251.07L437.34,272.22L437.43,261.01L437.52,246.95L438.05,273.68L438.13,251.61L438.22,258.94L438.31,268L438.4,239.14L438.93,255.46L439.02,258.33L439.28,267.3L439.73,246.05L439.82,254.46L439.91,253.51L439.99,265.06L440.08,267.49L440.17,243.82L440.34,228.27L440.68,272.94L440.77,243.68L440.86,267.47L441.03,271.16L441.13,240.57L441.66,253.01L441.74,265.37L441.83,271.81L441.92,253.82L442.19,261.45L442.28,246.72L442.37,247.27L442.46,270.58L442.72,237.83L443.34,253.21L443.43,265.19L444.13,236.39L444.22,261.24L444.48,271.52L445.02,253.25L445.11,262.83L445.55,243.35L445.81,269.24L445.9,263.39L446.08,251.45L446.17,269.7L446.26,270.44L446.43,243.57L446.87,272.86L446.96,259.58L447.05,274.6L447.66,226.79L447.84,258.25L447.92,259.51L448.1,255.01L448.28,313.5L448.55,263.7L448.64,265.96L448.81,275.3L449.34,238.74L449.44,250.82L449.53,264.27L449.62,267.5L449.71,264.97L449.8,234.65L450.06,269.02L450.68,256.04L450.78,249.92L451.35,278.67L451.44,181.56L451.91,296.25L452.27,243.7L452.36,261.47L452.54,263.78L452.63,242.13L453.07,250.83L453.16,257.07L453.25,259.23L453.33,240.41L453.69,277.19L453.96,238.3L454.04,230.2L454.67,279.57L454.84,261.6L454.93,256.35L455.28,240.19L455.46,272.9L455.64,268.41L455.73,260.09L455.91,253.83L456,262.1L456.35,269.61L456.54,236.18L456.71,254.15L456.8,255.83L457.24,245.94L457.51,294.11L457.6,265.84L457.69,253.55L458.06,282.94L458.23,237.8L458.51,264.52L458.6,261.55L459.15,268.47L459.24,254.07L459.33,266.94L459.69,268.63L459.78,242.04L460.04,258.54L460.13,266.35L460.67,240.45L461.03,247.04L461.13,254.91L461.56,261.42L461.65,269.95L461.83,274.36L462.53,234.8L462.62,263.14L462.98,245.93L463.16,253.13L463.25,267.03L463.34,239.03L463.42,270.8L463.95,264.32L464.04,278.22L464.3,245.3L464.83,269.16L464.92,262.08L465,267.23L465.36,242.97L465.45,266.12L465.53,250.82L465.97,269.91L466.41,268.1L466.5,256.29L467.03,292.57L467.21,258.34L467.29,254.27L467.47,245.36L467.84,269.61L468.02,257.39L468.1,253.68L468.19,268.49L468.37,245.88L468.9,265.21L468.99,261.03L469.08,247.82L469.25,264.88L469.69,263.14L469.78,263.75L469.95,241.38L470.31,270.98L470.56,253.48L470.65,271L470.82,238.06L471.35,250.06L471.44,265.62L471.7,244.33L472.14,252.32L472.23,278.73L472.84,255.96L473.02,263.91L473.11,259.81L473.28,276.93L473.45,247.7L473.72,267.88L473.81,247.85L474.34,245.67L474.52,276.49L474.61,228.9L475.13,272.59L475.4,247.53L475.49,270.67L475.74,241.74L476.19,256.51L476.27,279.63L476.36,250.93L477.08,256.49L477.17,259.77L477.26,247.02L477.44,308.96L477.8,251.88L477.89,270.87L478.33,254.07L478.68,263.97L478.77,274.25L478.95,240.15L479.39,262.76L479.48,276.06L479.83,248.16L480.27,257.86L480.36,266.42L480.44,267.13L480.53,259.53L480.8,250.19L480.98,272.4L481.15,270.39L481.24,257.29L481.33,265.34L481.59,244.49L482.02,262.53L482.11,241.42L482.28,277.71L482.9,272.71L482.99,258.75L483.25,270.25L483.34,249.08L483.71,259.94L483.8,265.88L484.15,270.24L484.67,251.95L484.76,271.72L484.85,242.5L485.55,243.13L485.64,243.08L485.99,279.42L486.35,241.78L486.44,268.04L486.53,253.94L486.88,251.95L487.41,285.22L487.5,269.14L487.59,259.72L487.68,260.24L487.76,268.2L487.94,250.01L488.38,279.28L488.56,253.61L488.64,259.96L488.73,242.86L488.99,277.49L489.34,259.24L489.43,278.8L490.06,253.26L490.14,262.02L490.23,266.97L490.49,275.51L491.04,250.59L491.13,263L491.22,280.42L491.48,247.09L491.83,263.03L491.92,259.51L492.28,276.32L492.37,235.11L492.67,255.28L492.77,266.67L493.13,266.85L493.32,257.49L493.59,261.49L493.68,265.14L493.77,264.15L493.86,254.37L494.13,272.24L494.3,251.23L494.57,258.38L494.66,257.03L494.75,257.48L494.84,261.9L495.02,246.49L495.28,250.69L495.37,268.77L495.81,246.81L496.17,256.86L496.26,275.28L496.34,249.45L496.6,282.51L496.96,260.95L497.05,298.26L497.69,245.02L497.87,259.06L497.97,252.77L498.49,250.15L498.58,270.46L498.76,265.36L498.85,252.77L498.94,275.11L499.4,233.71L499.57,261.6L499.66,253.77L499.94,273.84L500.22,264.15L500.31,256.99L500.4,257.55L500.49,267.27L500.58,273.06L500.76,246.6L501.03,263.58L501.12,258.64L501.47,267.86L501.65,258.81L501.74,246.62L502.01,277.66L502.18,243.68L502.46,263.94L502.55,255.39L502.73,268.05L503.08,245.58L503.26,247.49L503.34,269.63L503.61,272.8L503.87,254.92L504.14,255.6L504.23,259.55L504.32,262.02L504.41,238.76L504.68,267.48L505.3,260.01L505.38,262.04L505.47,243.14L505.91,273.43L506.09,245.1L506.17,255.74L506.52,271.07L506.79,246.28L506.88,258.97L506.96,248.66L507.22,272.98L507.67,253.59L507.75,245.14L507.84,245.92L507.93,259.59L508.2,256.2L508.46,287.68L508.64,259.56L508.72,263.85L508.81,283.12L508.9,241.89L509.45,261.15L509.53,267.8L509.71,259.35L509.98,283.64L510.16,260.88L510.24,271.09L510.42,263.16L510.51,255.13L510.68,273.8L510.77,249.83L511.3,271.77L511.38,261.35L511.47,247.63L511.56,269.15L512.08,263.88L512.17,261.33L512.52,265.65L512.96,235.23L513.04,259.68L513.3,249.89L513.39,265.41L513.57,252.82L513.66,272.4L514.09,274.8L514.45,249.41L514.54,256.06L514.63,255.31L514.71,295.07L515.24,252.39L515.33,256.16L515.42,256.21L515.95,270.94L516.04,259.23L516.13,250L516.48,248.33L516.92,278.02L517.01,270.07L517.09,263.85L517.27,270.27L517.53,259.68L517.62,271.77L517.97,278.54L518.24,256.48L518.33,256.84L518.42,269.42L518.52,259.7L518.96,264.33L519.05,282.43L519.67,251.8L519.85,260.1L519.94,264.64L520.11,272.54L520.2,263.76L520.29,270.01L520.38,253.81L520.65,282.31L520.91,250.56L521.09,268.76L521.18,259.11L521.35,267.78L521.53,257.44L521.79,261.14L521.88,213.9L522.14,270.76L522.68,264.14L522.77,251.2L523.03,239.97L523.28,273.02L523.37,251.84L523.46,242.35L523.54,276.16L524.16,272.99L524.25,258.53L524.34,289.04L524.52,252.49L524.96,267.44L525.05,265.87L525.76,268.19L525.85,248.55L525.94,262.21L526.63,249.7L526.72,256.12L526.81,263.03L527.07,241.6L527.25,265.42L527.52,260.28L527.61,272.77L528.14,239.28L528.49,256.7L528.58,273.21L528.67,271.29L528.76,251.54L529.46,275.77L529.55,254.22L529.99,269.57L530.08,239.46L530.17,255.59L530.26,262.44L530.35,243.99L530.6,280.68L530.96,268.85L531.05,255.1L531.14,253.35L531.23,261.45L531.32,270.3L531.67,276.8L532.02,249.31L532.11,261L532.3,299.33L532.39,276.26L532.48,252.07L533,276.27L533.27,273.53L533.36,262.01L533.45,266.28L533.63,242.47L533.91,255.61L534.01,251.88L534.11,263.1L534.2,255.6L534.29,177.57L534.66,266.62L535.12,262.82L535.21,270.09L535.39,259.13L535.65,282.21L536.01,261.15L536.09,262.21L536.54,265.14L536.8,245.98L536.89,247.44L536.98,267.03L537.42,267.25L537.6,251.76L537.69,253.92L537.78,260.06L538.12,248.28L538.21,277.68L538.49,271.53L538.58,260.62L538.86,270.55L539.12,250.31L539.3,256.38L539.39,261.06L539.57,248.34L540.01,268.98L540.1,244.91L540.37,280.47L540.92,262.97L541,271.88L541.37,286.98L541.83,249.35L541.92,266.96L542.01,266.53L542.1,276.9L542.19,244.46L542.82,271.15L542.91,266.5L543.17,271.19L543.26,270.36L543.35,248.28L543.53,265.46L543.8,258.36L543.89,254.83L544.43,270.47L544.51,258.18L544.6,250.88L545.31,281.8L545.39,257.87L545.48,257.38L545.57,281.92L545.85,252.47L546.38,256.97L546.46,266.5L546.91,270.89L547.43,241.52L547.52,247.29L547.61,257.44L547.78,264.53L547.87,253.31L548.23,256.02L548.31,260.86L548.4,260.16L548.49,261.61L548.58,260.43L548.66,270.66L548.75,279.97L549.1,259.26L549.36,265.79L549.45,266.94L549.63,248.87L549.89,289.72L550.25,277.12L550.33,245.91L550.52,270.72L551.05,241.36L551.14,266.15L551.23,260.5L551.67,275.49L551.94,246.95L552.03,264.66L552.11,273.37L552.2,254.4L552.73,264.69L552.81,261.91L552.9,261.73L552.99,264.9L553.08,287.2L553.43,248.49L553.6,263.99L553.68,247.44L554.03,263.53L554.12,242.39L554.3,266.99L554.91,263L555,256.65L555.52,276.15L555.61,245.79L555.7,262.24L555.79,254.65L556.05,228.41L556.49,277.37L556.58,257.23L556.76,276.05L556.84,233.78L557.02,273.18L557.64,272.5L557.73,256.64L557.9,264.42L557.98,259.15L558.07,240.43L558.25,265.38L558.78,262.15L558.87,244.51L559.04,230.08L559.75,286.46L559.84,258.91L560.12,250.09L560.3,279.28L560.47,260.5L560.56,242.99L560.74,268.83L561.35,265.9L561.44,255.86L561.53,255.24L561.62,281L562.24,255.33L562.41,261.54L562.51,272.7L562.77,252.17L563.21,256.87L563.3,273.83L563.74,251.07L564.01,268.4L564.1,267.72L564.36,274.5L564.52,251.67L564.61,274.87L564.96,252.2L565.05,283.44L565.4,259.67L565.49,271.93L565.76,247.57L566.2,261.45L566.29,276.37L566.82,241.45L566.91,268.48L567,281.36L567.18,240.45L567.7,276.79L567.79,307.54L568.23,242.95L568.57,252.92L568.66,264.97L568.94,278.45L569.03,254.27L569.38,263.17L569.47,269.19L569.65,274.77L569.82,247.41L570.18,259.55L570.27,265.7L570.36,264.3L570.45,287.92L571.15,246.1L571.23,276.01L571.32,269.42L571.76,244.74L572.11,263.36L572.2,255.61L572.65,233.32L572.91,274.03L573,257.89L573.26,254.53L573.35,268.68L573.44,277.38L574.07,278.44L574.34,249.27L574.43,264.03L574.51,281.44L574.6,251.81L575.22,273.72L575.33,258.35L575.43,252.4L575.52,279.72L575.71,254.73L575.8,294.66L576.54,246.91L576.63,281.33L577.07,247.11L577.34,278.26L577.43,274.28L577.69,276.58L577.78,255.6L578.22,264.18L578.31,270.97L578.75,239.48L579.02,255.87L579.11,281.29L579.37,260.26L579.91,267.53L580,256.54"/><g class="points"/></g></g></g><g class="overplot"/><path class="xlines-above crisp" style="fill: none;" d="M0,0"/><path class="ylines-above crisp" style="fill: none;" d="M0,0"/><g class="overlines-above"/><g class="xaxislayer-above"><g class="xtick"><text text-anchor="middle" x="0" y="403" style="font-family: TOBESTRIPPEDOpen SansTOBESTRIPPED, verdana, arial, sans-serif; font-size: 12px; fill: rgb(68, 68, 68); fill-opacity: 1; white-space: pre;" transform="translate(60,0)">0</text></g><g class="xtick"><text text-anchor="middle" x="0" y="403" style="font-family: TOBESTRIPPEDOpen SansTOBESTRIPPED, verdana, arial, sans-serif; font-size: 12px; fill: rgb(68, 68, 68); fill-opacity: 1; white-space: pre;" transform="translate(157.81,0)">0.2B</text></g><g class="xtick"><text text-anchor="middle" x="0" y="403" style="font-family: TOBESTRIPPEDOpen SansTOBESTRIPPED, verdana, arial, sans-serif; font-size: 12px; fill: rgb(68, 68, 68); fill-opacity: 1; white-space: pre;" transform="translate(255.61,0)">0.4B</text></g><g class="xtick"><text text-anchor="middle" x="0" y="403" style="font-family: TOBESTRIPPEDOpen SansTOBESTRIPPED, verdana, arial, sans-serif; font-size: 12px; fill: rgb(68, 68, 68); fill-opacity: 1; white-space: pre;" transform="translate(353.42,0)">0.6B</text></g><g class="xtick"><text text-anchor="middle" x="0" y="403" style="font-family: TOBESTRIPPEDOpen SansTOBESTRIPPED, verdana, arial, sans-serif; font-size: 12px; fill: rgb(68, 68, 68); fill-opacity: 1; white-space: pre;" transform="translate(451.22,0)">0.8B</text></g><g class="xtick"><text text-anchor="middle" x="0" y="403" style="font-family: TOBESTRIPPEDOpen SansTOBESTRIPPED, verdana, arial, sans-serif; font-size: 12px; fill: rgb(68, 68, 68); fill-opacity: 1; white-space: pre;" transform="translate(549.03,0)">1B</text></g></g><g class="yaxislayer-above"><g class="ytick"><text text-anchor="end" x="59" y="4.199999999999999" style="font-family: TOBESTRIPPEDOpen SansTOBESTRIPPED, verdana, arial, sans-serif; font-size: 12px; fill: rgb(68, 68, 68); fill-opacity: 1; white-space: pre;" transform="translate(0,378.69)">1500</text></g><g class="ytick"><text text-anchor="end" x="59" y="4.199999999999999" style="font-family: TOBESTRIPPEDOpen SansTOBESTRIPPED, verdana, arial, sans-serif; font-size: 12px; fill: rgb(68, 68, 68); fill-opacity: 1; white-space: pre;" transform="translate(0,313.38)">2000</text></g><g class="ytick"><text text-anchor="end" x="59" y="4.199999999999999" style="font-family: TOBESTRIPPEDOpen SansTOBESTRIPPED, verdana, arial, sans-serif; font-size: 12px; fill: rgb(68, 68, 68); fill-opacity: 1; white-space: pre;" transform="translate(0,262.73)">2500</text></g><g class="ytick"><text text-anchor="end" x="59" y="4.199999999999999" style="font-family: TOBESTRIPPEDOpen SansTOBESTRIPPED, verdana, arial, sans-serif; font-size: 12px; fill: rgb(68, 68, 68); fill-opacity: 1; white-space: pre;" transform="translate(0,221.34)">3000</text></g><g class="ytick"><text text-anchor="end" x="59" y="4.199999999999999" style="font-family: TOBESTRIPPEDOpen SansTOBESTRIPPED, verdana, arial, sans-serif; font-size: 12px; fill: rgb(68, 68, 68); fill-opacity: 1; white-space: pre;" transform="translate(0,186.35)">3500</text></g><g class="ytick"><text text-anchor="end" x="59" y="4.199999999999999" style="font-family: TOBESTRIPPEDOpen SansTOBESTRIPPED, verdana, arial, sans-serif; font-size: 12px; fill: rgb(68, 68, 68); fill-opacity: 1; white-space: pre;" transform="translate(0,156.03)">4000</text></g><g class="ytick"><text text-anchor="end" x="59" y="4.199999999999999" style="font-family: TOBESTRIPPEDOpen SansTOBESTRIPPED, verdana, arial, sans-serif; font-size: 12px; fill: rgb(68, 68, 68); fill-opacity: 1; white-space: pre;" transform="translate(0,129.3)">4500</text></g><g class="ytick"><text text-anchor="end" x="59" y="4.199999999999999" style="font-family: TOBESTRIPPEDOpen SansTOBESTRIPPED, verdana, arial, sans-serif; font-size: 12px; fill: rgb(68, 68, 68); fill-opacity: 1; white-space: pre;" transform="translate(0,105.38)">5000</text></g><g class="ytick"><text text-anchor="end" x="59" y="4.199999999999999" style="font-family: TOBESTRIPPEDOpen SansTOBESTRIPPED, verdana, arial, sans-serif; font-size: 12px; fill: rgb(68, 68, 68); fill-opacity: 1; white-space: pre;" transform="translate(0,83.74)">5500</text></g><g class="ytick"><text text-anchor="end" x="59" y="4.199999999999999" style="font-family: TOBESTRIPPEDOpen SansTOBESTRIPPED, verdana, arial, sans-serif; font-size: 12px; fill: rgb(68, 68, 68); fill-opacity: 1; white-space: pre;" transform="translate(0,63.99)">6000</text></g></g><g class="overaxes-above"/></g></g><g class="polarlayer"/><g class="ternarylayer"/><g class="geolayer"/><g class="pielayer"/><g class="glimages"/><defs id="topdefs-48731e"><g class="clips"/></defs><g class="layer-above"><g class="imagelayer"/><g class="shapelayer"/></g><g class="infolayer"><g class="g-gtitle"><text class="gtitle" style="font-family: TOBESTRIPPEDOpen SansTOBESTRIPPED, verdana, arial, sans-serif; font-size: 17px; fill: rgb(68, 68, 68); opacity: 1; font-weight: normal; white-space: pre;" x="350" y="30" text-anchor="middle">Training Loss</text></g><g class="g-xtitle"><text class="xtitle" style="font-family: TOBESTRIPPEDOpen SansTOBESTRIPPED, verdana, arial, sans-serif; font-size: 14px; fill: rgb(68, 68, 68); opacity: 1; font-weight: normal; white-space: pre;" x="350" y="442" text-anchor="middle">Bytes processed</text></g><g class="g-ytitle"><text class="ytitle" transform="rotate(-90,22,225)" style="font-family: TOBESTRIPPEDOpen SansTOBESTRIPPED, verdana, arial, sans-serif; font-size: 14px; fill: rgb(68, 68, 68); opacity: 1; font-weight: normal; white-space: pre;" x="22" y="225" text-anchor="middle">Loss</text></g></g></svg>